<?xml version="1.0" encoding="UTF-8"?>
<svg id="Layer_1" data-name="Layer 1" xmlns="http://www.w3.org/2000/svg" viewBox="0 0 283.46 160.93">
  <defs>
    <style>
      .cls-1 {
        fill: #3c3c3c;
      }

      .cls-2 {
        fill: #f8c026;
      }

      .cls-3 {
        fill: #2fb88a;
      }
    </style>
  </defs>
  <path class="cls-1" d="M271.87,119.33c-20.53,14.45-71.83,22.4-71.83,22.4-15.58-17.24-28.95-29.78-40.33-38.85-.61-20.26-10.08-38.68-25.27-52.61,15.61-5.22,27.95-12.86,35.15-21.96.09.04.13.07.13.07,44.77,26.6,102.15,90.96,102.15,90.96Z"/>
  <path class="cls-3" d="M169.59,28.31c-7.2,9.1-19.55,16.74-35.15,21.96-14.1,4.75-30.89,7.49-48.87,7.49-19.05,0-36.74-3.07-51.35-8.34C87.93-12.9,165.96,26.44,169.59,28.31Z"/>
  <path class="cls-2" d="M159.71,102.88c-39.79-31.76-55.29-21.33-55.29-21.33-17.74,8.4-24.73,50.85-24.73,50.85-34.04-4.2-68.11-33.11-68.11-33.11,1.87-22.85,21.46-48.52,21.46-48.52.39-.46.76-.91,1.18-1.35,14.61,5.27,32.3,8.34,51.35,8.34,17.98,0,34.76-2.74,48.87-7.49,15.19,13.93,24.66,32.35,25.27,52.61Z"/>
</svg>